<svg id="图层_1" data-name="图层 1" xmlns="http://www.w3.org/2000/svg" viewBox="0 0 36 36"><defs><style>.cls-1{fill:#919191;}</style></defs><title>画板 2</title><path id="icon_拷贝_3" data-name="icon 拷贝 3" class="cls-1" d="M3,7.1H1a.94.94,0,0,1-1-1,.94.94,0,0,1,1-1H3a.94.94,0,0,1,1,1A.94.94,0,0,1,3,7.1Zm32,0H11a.94.94,0,0,1-1-1,.94.94,0,0,1,1-1H35a.94.94,0,0,1,1,1A.94.94,0,0,1,35,7.1ZM3,19.1H1a1,1,0,0,1,0-2H3a1,1,0,0,1,0,2Zm32,0H11a1,1,0,0,1,0-2H35a1,1,0,0,1,0,2ZM3,31.1H1a1,1,0,0,1,0-2H3a1,1,0,0,1,0,2Zm32,0H11a1,1,0,1,1,0-2H35a1,1,0,0,1,0,2Z"/></svg>