<?xml version="1.0" standalone="no"?><!DOCTYPE svg PUBLIC "-//W3C//DTD SVG 1.1//EN" "http://www.w3.org/Graphics/SVG/1.1/DTD/svg11.dtd"><svg t="1532512178509" class="icon" style="" viewBox="0 0 1024 1024" version="1.1" xmlns="http://www.w3.org/2000/svg" p-id="2137" xmlns:xlink="http://www.w3.org/1999/xlink" width="200" height="200"><defs><style type="text/css"></style></defs><path d="M154 862c-35.8 0-65-29.2-65-65V227c0-35.8 29.2-65 65-65h716c35.8 0 65 29.2 65 65v570c0 35.8-29.2 65-65 65H154z" fill="#E5E5E5" p-id="2138"></path><path d="M870 187c10.6 0 20.6 4.2 28.2 11.8 7.6 7.6 11.8 17.6 11.8 28.2v570c0 10.6-4.2 20.6-11.8 28.2-7.6 7.6-17.6 11.8-28.2 11.8H154c-10.6 0-20.6-4.2-28.2-11.8-7.6-7.6-11.8-17.6-11.8-28.2V227c0-10.6 4.2-20.6 11.8-28.2 7.6-7.6 17.6-11.8 28.2-11.8h716m0-50H154c-49.5 0-90 40.5-90 90v570c0 49.5 40.5 90 90 90h716c49.5 0 90-40.5 90-90V227c0-49.5-40.5-90-90-90z" fill="#3A3644" p-id="2139"></path><path d="M154 837c-7.4 0-14.3-2-20.2-5.5h575.7c77.2 0 140-62.8 140-140V187H870c22.1 0 40 17.9 40 40v570c0 22.1-17.9 40-40 40H154z" fill="#B2C5E4" p-id="2140"></path><path d="M849.4 456.6l-316.8 155-419.8-233.8 736.6-39.7z" fill="#C4C4C5" p-id="2141"></path><path d="M529 562.4c-7.7 0-15.3-1.9-22.1-5.5L89 337V227c0-35.8 29.2-65 65-65h716c35.8 0 65 29.2 65 65v127.9L551.1 557c-6.8 3.6-14.4 5.4-22.1 5.4z" fill="#FFFFFF" p-id="2142"></path><path d="M870 187c10.6 0 20.6 4.2 28.2 11.8 7.6 7.6 11.8 17.6 11.8 28.2v112.8l-370.5 195c-3.2 1.7-6.8 2.6-10.5 2.6-3.6 0-7.2-0.9-10.5-2.6L114 321.9V227c0-10.6 4.2-20.6 11.8-28.2 7.6-7.6 17.6-11.8 28.2-11.8h716m0-50H154c-49.5 0-90 40.5-90 90v125.1l431.3 227c10.6 5.6 22.2 8.3 33.7 8.3 11.6 0 23.2-2.8 33.7-8.3L960 370V227c0-49.5-40.5-90-90-90z" fill="#3A3644" p-id="2143"></path><path d="M741 719m-60 0a60 60 0 1 0 120 0 60 60 0 1 0-120 0Z" fill="#F46070" p-id="2144"></path><path d="M741 674c24.8 0 45 20.2 45 45s-20.2 45-45 45-45-20.2-45-45 20.2-45 45-45m0-30c-41.4 0-75 33.6-75 75s33.6 75 75 75 75-33.6 75-75-33.6-75-75-75z" fill="#3A3644" p-id="2145"></path><path d="M540 660.6h100v40H540zM460 730.6h180v40H460z" fill="#8E8C93" p-id="2146"></path><path d="M114 235.1V227c0-22.1 17.9-40 40-40h716c22.1 0 40 17.9 40 40v8.1H114z" fill="#E5E5E5" p-id="2147"></path><path d="M154 927c-35.8 0-65-29.2-65-65V162c0-35.8 29.2-65 65-65h716c35.8 0 65 29.2 65 65v700c0 35.8-29.2 65-65 65H154z" fill="#FF9292" p-id="2148"></path><path d="M870 122c10.6 0 20.6 4.2 28.2 11.8 7.6 7.6 11.8 17.6 11.8 28.2v700c0 10.6-4.2 20.6-11.8 28.2-7.6 7.6-17.6 11.8-28.2 11.8H154c-10.6 0-20.6-4.2-28.2-11.8-7.6-7.6-11.8-17.6-11.8-28.2V162c0-10.6 4.2-20.6 11.8-28.2 7.6-7.6 17.6-11.8 28.2-11.8h716m0-50H154c-49.5 0-90 40.5-90 90v700c0 49.5 40.5 90 90 90h716c49.5 0 90-40.5 90-90V162c0-49.5-40.5-90-90-90z" fill="#3A3644" p-id="2149"></path><path d="M567.2 691h-78.6l-31.3-81.3h-143L284.8 691h-76.7l139.4-358h76.4l143.3 358z m-133-141.6l-49.3-132.8-48.3 132.8h97.6zM815.9 691h-68.6V558.6c0-28-1.5-46.1-4.4-54.3-2.9-8.2-7.7-14.6-14.3-19.2-6.6-4.6-14.5-6.8-23.8-6.8-11.9 0-22.5 3.3-32 9.8-9.4 6.5-15.9 15.1-19.4 25.9-3.5 10.7-5.2 30.6-5.2 59.6V691h-68.6V431.7h63.7v38.1c22.6-29.3 51.1-43.9 85.4-43.9 15.1 0 29 2.7 41.5 8.2 12.5 5.5 22 12.4 28.4 20.9 6.4 8.5 10.9 18.1 13.4 28.8s3.8 26.1 3.8 46.1V691z" fill="#3A3644" p-id="2150"></path></svg>