<?xml version="1.0" standalone="no"?><!DOCTYPE svg PUBLIC "-//W3C//DTD SVG 1.1//EN" "http://www.w3.org/Graphics/SVG/1.1/DTD/svg11.dtd"><svg t="1520564474250" class="icon" style="" viewBox="0 0 1024 1024" version="1.1" xmlns="http://www.w3.org/2000/svg" p-id="2579" xmlns:xlink="http://www.w3.org/1999/xlink" width="200" height="200"><defs><style type="text/css"></style></defs><path d="M954.125 925.841L540.443 512.159 954.071 98.53c7.811-7.811 7.811-20.474 0-28.284s-20.474-7.811-28.284 0L512.159 483.875 98.53 70.246c-7.811-7.811-20.474-7.811-28.284 0s-7.811 20.474 0 28.284l413.628 413.628L70.192 925.841c-7.811 7.811-7.811 20.474 0 28.284s20.474 7.811 28.284 0l413.682-413.682L925.84 954.125c7.811 7.811 20.474 7.811 28.284 0s7.812-20.474 0.001-28.284z" fill="#272536" p-id="2580"></path></svg>