<svg id="图层_1" data-name="图层 1" xmlns="http://www.w3.org/2000/svg" viewBox="0 0 51 51"><defs><style>.cls-1{fill:#454545;}</style></defs><title>画板 1 副本 2</title><path class="cls-1" d="M50.83,43.19,47.22,19.91a6.13,6.13,0,0,0-5.72-5.32H38.31v-2.2a12.39,12.39,0,1,0-24.79,0v2.2h-4a6.13,6.13,0,0,0-5.72,5.32L.17,43.19a7.61,7.61,0,0,0,1.4,6A4.72,4.72,0,0,0,5.24,51H45.76a4.72,4.72,0,0,0,3.66-1.77A7.61,7.61,0,0,0,50.83,43.19ZM16.28,12.39a9.63,9.63,0,1,1,19.25,0v2.2H16.27Zm31,34.92a2.09,2.09,0,0,1-1.61.8H5.35a2.09,2.09,0,0,1-1.61-.8,4.91,4.91,0,0,1-.83-3.83l3.48-23.3a3.48,3.48,0,0,1,3-3.08h4.08l0,3.44h0v0h0a1.38,1.38,0,0,0,2.77,0v0h0l0-3.43H35.56l0,3.43h0v0a1.38,1.38,0,0,0,2.77,0h0v0h0l0-3.44h3.25a3.48,3.48,0,0,1,3,3.08l3.48,23.3A4.91,4.91,0,0,1,47.25,47.31Z"/></svg>