<?xml version="1.0" encoding="utf-8"?>
<!-- Generator: Adobe Illustrator 20.1.0, SVG Export Plug-In . SVG Version: 6.00 Build 0)  -->
<svg version="1.1" id="图层_1" xmlns="http://www.w3.org/2000/svg" xmlns:xlink="http://www.w3.org/1999/xlink" x="0px" y="0px"
	 viewBox="0 0 30 30" style="enable-background:new 0 0 30 30;" xml:space="preserve">
<style type="text/css">
	.st0{fill:#A0A1A7;}
</style>
<title>画板 1 副本 10</title>
<path id="Path" class="st0" d="M15,0C6.7,0,0,6.7,0,15s6.7,15,15,15s15-6.7,15-15S23.3,0,15,0z M21.7,20.1c0.4,0.4,0.4,1.1,0,1.5
	s-1.1,0.4-1.5,0L15,16.5l-5.1,5.1c-0.4,0.4-1.1,0.4-1.5,0c-0.4-0.4-0.4-1.1,0-1.5l5.1-5.1L8.3,9.8C7.9,9.4,7.9,8.7,8.4,8.3
	c0.4-0.4,1.1-0.4,1.5,0l5.1,5.1l5.1-5.1c0.4-0.4,1.1-0.4,1.5,0c0.4,0.4,0.4,1.1,0,1.5l0,0L16.5,15L21.7,20.1z"/>
</svg>
