<?xml version="1.0" encoding="utf-8"?>
<!-- Generator: Adobe Illustrator 20.1.0, SVG Export Plug-In . SVG Version: 6.00 Build 0)  -->
<svg version="1.1" id="图层_1" xmlns="http://www.w3.org/2000/svg" xmlns:xlink="http://www.w3.org/1999/xlink" x="0px" y="0px"
	 viewBox="0 0 36 36" style="enable-background:new 0 0 36 36;" xml:space="preserve">
<style type="text/css">
	.st0{fill:#EB3C19;}
</style>
<title>画板 1 副本 23</title>
<rect x="11.1" y="14.8" class="st0" width="1.5" height="14.4"/>
<rect x="17.5" y="14.8" class="st0" width="1.5" height="14.4"/>
<rect x="23.9" y="14.8" class="st0" width="1.5" height="14.4"/>
<path class="st0" d="M32.2,3.5h-6v-1c0-1.3-1-2.4-2.4-2.5c0,0-0.1,0-0.1,0H12.3C11,0,9.9,1.1,9.9,2.4c0,0,0,0,0,0v1h-6
	c-1.3,0-2.4,1.1-2.5,2.4c0,0,0,0.1,0,0.1v2.3c0,1.3,1.1,2.4,2.4,2.4h0.7v21C4.6,34,6.5,36,8.9,36c0,0,0,0,0.1,0h18
	c2.4,0,4.4-2,4.4-4.4v-21h0.7c1.3,0,2.4-1.1,2.4-2.4c0,0,0,0,0,0V5.9C34.5,4.6,33.5,3.5,32.2,3.5z M11.9,2.5C11.9,2.2,12,2,12.3,2
	c0,0,0,0,0,0h11.4c0.2,0,0.4,0.2,0.4,0.4v1H11.9L11.9,2.5z M29.4,31.6c0,1.3-1.1,2.4-2.4,2.4c0,0,0,0,0,0H9c-1.3,0-2.4-1.1-2.4-2.4
	v-21h22.8V31.6z M32.6,8.2c0,0.2-0.2,0.4-0.4,0.4H3.9c-0.2,0-0.4-0.2-0.4-0.4V5.9c0-0.2,0.2-0.4,0.4-0.4h28.3c0.2,0,0.4,0.2,0.4,0.4
	L32.6,8.2z"/>
</svg>
