<svg id="图层_1" data-name="图层 1" xmlns="http://www.w3.org/2000/svg" viewBox="0 0 52 52"><defs><style>.cls-1{fill:#eb3c19;}</style></defs><title>画板 1 副本 19</title><path id="_" data-name=" " class="cls-1" d="M18.44,13.75,25,25.24a.48.48,0,0,1-.42.72h-4a.48.48,0,0,0-.48.48v.84a.48.48,0,0,0,.48.48h5.38a.48.48,0,0,1,.48.48v2.57a.48.48,0,0,1-.48.48H20.53a.48.48,0,0,0-.48.48v.84a.48.48,0,0,0,.48.48h5.38a.48.48,0,0,1,.48.48v4.69a.48.48,0,0,0,.48.48h2.21a.48.48,0,0,0,.48-.48V33.57a.48.48,0,0,1,.48-.48h5.41a.48.48,0,0,0,.48-.48v-.84a.48.48,0,0,0-.48-.48H30a.48.48,0,0,1-.48-.48V28.24a.48.48,0,0,1,.48-.48h5.41a.48.48,0,0,0,.48-.48v-.84a.48.48,0,0,0-.48-.48H31.39a.48.48,0,0,1-.42-.72L37.5,13.75a.48.48,0,0,0-.42-.72H34.63a.48.48,0,0,0-.42.25L28.39,24.06a.48.48,0,0,1-.84,0L21.74,13.29a.48.48,0,0,0-.42-.25H18.86A.48.48,0,0,0,18.44,13.75Z"/><path class="cls-1" d="M9.55,14.26a21.88,21.88,0,1,1-3,16.18.08.08,0,0,1,.12-.09l3.88,2.29a.11.11,0,0,0,.16-.14L5.91,21.75a.19.19,0,0,0-.34,0L.24,32.15a.11.11,0,0,0,.15.14l4-2.06a.12.12,0,0,1,.18.09A23.91,23.91,0,1,0,7.86,13.19h0a1,1,0,0,0,.31,1.38,1,1,0,0,0,1.38-.31"/></svg>