<svg id="图层_1" data-name="图层 1" xmlns="http://www.w3.org/2000/svg" viewBox="0 0 38 38"><defs><style>.cls-1{fill:#919191;}</style></defs><title>画板 1 副本 4</title><path class="cls-1" d="M33,33a3,3,0,0,1-3,3H5a3,3,0,0,1-3-3V5A3,3,0,0,1,5,2H30a3,3,0,0,1,3,3v5.42h2V5a5,5,0,0,0-5-5H5A5,5,0,0,0,0,5V33a5,5,0,0,0,5,5H30a5,5,0,0,0,5-5V27.58H33Z"/><path class="cls-1" d="M33,26H21a5,5,0,0,1-5-5V17a5,5,0,0,1,5-5H33a5,5,0,0,1,5,5v4A5,5,0,0,1,33,26ZM21,14a3,3,0,0,0-3,3v4a3,3,0,0,0,3,3H33a3,3,0,0,0,3-3V17a3,3,0,0,0-3-3Z"/><rect id="矩形_3" data-name="矩形 3" class="cls-1" x="21" y="18" width="2" height="2"/></svg>