<svg id="图层_1" data-name="图层 1" xmlns="http://www.w3.org/2000/svg" viewBox="0 0 38 38"><defs><style>.cls-1{fill:#919191;}</style></defs><title>画板 1 副本 6</title><polygon class="cls-1" points="15 19 9 19 9 21 15 21 17 21 17 19 17 15 15 15 15 19"/><path class="cls-1" d="M33,0H14V9.3l-14,5V29a5,5,0,0,0,5,5H6.35a6,6,0,0,0,11.3,0h2.7a6,6,0,0,0,11.3,0H33a5,5,0,0,0,5-5V5A5,5,0,0,0,33,0ZM12,36a4,4,0,1,1,4-4A4,4,0,0,1,12,36Zm14,0a4,4,0,1,1,4-4A4,4,0,0,1,26,36Zm10-7a3,3,0,0,1-3,3H32a6,6,0,0,0-12,0H18A6,6,0,0,0,6,32H5a3,3,0,0,1-3-3V15.7l14-5V2H33a3,3,0,0,1,3,3Z"/></svg>