<svg id="图层_1" data-name="图层 1" xmlns="http://www.w3.org/2000/svg" viewBox="0 0 51 51"><defs><style>.cls-1{fill:#454545;}</style></defs><title>画板 1 副本 27</title><path class="cls-1" d="M47.84,16.39C44.4,7,35.92.25,26,.25s-18.3,6.62-21.78,16A4.4,4.4,0,0,0,0,20.61v12A4.4,4.4,0,0,0,4.41,37h1.5a4.4,4.4,0,0,0,4.4-4.4v-12a4.4,4.4,0,0,0-2.94-4.14C10.58,8.68,17.73,3.25,26,3.25s15.29,5.33,18.56,13a4.4,4.4,0,0,0-3.88,4.36v12a4.4,4.4,0,0,0,3.07,4.19A20.75,20.75,0,0,1,33.7,46.12a3.19,3.19,0,0,0-3.06-2.32h-8a3.2,3.2,0,0,0-3.2,3.2v.56a3.2,3.2,0,0,0,3.2,3.2h8a3.18,3.18,0,0,0,2.5-1.23A23.72,23.72,0,0,0,47,37a4.4,4.4,0,0,0,4-4.37v-12A4.4,4.4,0,0,0,47.84,16.39ZM7.5,32.6a1.6,1.6,0,0,1-1.6,1.6H4.41a1.6,1.6,0,0,1-1.6-1.6v-12A1.6,1.6,0,0,1,4.41,19h1.5a1.6,1.6,0,0,1,1.6,1.6Zm23.93,15a.8.8,0,0,1-.8.8h-8a.8.8,0,0,1-.8-.8V47a.8.8,0,0,1,.8-.8h8a.8.8,0,0,1,.8.8Zm16.75-15a1.6,1.6,0,0,1-1.6,1.6h-1.5a1.6,1.6,0,0,1-1.6-1.6v-12a1.6,1.6,0,0,1,1.6-1.6h1.5a1.6,1.6,0,0,1,1.6,1.6Z"/></svg>