<svg id="图层_1" data-name="图层 1" xmlns="http://www.w3.org/2000/svg" viewBox="0 0 36 36"><defs><style>.cls-1{fill:#454545;}</style></defs><title>画板 1 副本 7</title><path id="Settings" class="cls-1" d="M33.8,14.59,30.91,14A13.46,13.46,0,0,0,30,11.88l1.56-2.6a2.57,2.57,0,0,0,0-3.18L30,4.5a2.63,2.63,0,0,0-3.25-.09L24.23,6a13.23,13.23,0,0,0-2-.86l-.65-2.93A2.65,2.65,0,0,0,19.16,0H16.91a2.59,2.59,0,0,0-2.26,2.25l-.72,2.89a13.15,13.15,0,0,0-2.19.92L9.15,4.41a2.64,2.64,0,0,0-3.26.09L4.3,6.1a2.57,2.57,0,0,0,0,3.18L5.94,12A13,13,0,0,0,5.15,14l-2.89.64A2.65,2.65,0,0,0,0,17v2.24a2.59,2.59,0,0,0,2.25,2.26l2.92.73A14,14,0,0,0,5.94,24L4.3,26.73a2.57,2.57,0,0,0,0,3.18L5.89,31.5a2.64,2.64,0,0,0,3.26.1L11.75,30a13.77,13.77,0,0,0,2.2.92l.72,2.88A2.59,2.59,0,0,0,16.92,36h2.25a2.64,2.64,0,0,0,2.37-2.23l.66-2.93a13.44,13.44,0,0,0,2-.86l2.54,1.62A2.63,2.63,0,0,0,30,31.5l1.59-1.59a2.57,2.57,0,0,0,0-3.18L30,24.12a13,13,0,0,0,.81-1.92l2.92-.73A2.59,2.59,0,0,0,36,19.21V17A2.65,2.65,0,0,0,33.8,14.59Zm0,4.47a1.33,1.33,0,0,1-.5.21l-4.17,1-.39,1.19A12.08,12.08,0,0,1,28,23.1l-.57,1.11,2.21,3.68a1.51,1.51,0,0,1,.22.54l-1.48,1.48a1.36,1.36,0,0,1-.38-.16l-3.7-2.36-1.16.6a12.38,12.38,0,0,1-1.69.71l-1.22.39-.93,4.19a.85.85,0,0,1-.24.47h-2a1.59,1.59,0,0,1-.22-.5l-1-4.14-1.2-.39A10.32,10.32,0,0,1,12.8,28l-1.16-.61-3.7,2.37a.88.88,0,0,1-.46.16L6,28.43a1.4,1.4,0,0,1,.21-.51l2.3-3.83L8,23a11.27,11.27,0,0,1-.62-1.49L7,20.31l-4.14-1a1.68,1.68,0,0,1-.54-.22V17h0l.38-.16,4.24-.94.4-1.24A9.44,9.44,0,0,1,8,13l.54-1.11L6.23,8.12A1.68,1.68,0,0,1,6,7.57L7.48,6.1a1.78,1.78,0,0,1,.38.15l3.78,2.41L12.79,8a11.64,11.64,0,0,1,1.83-.77l1.19-.38,1-4.1a1.66,1.66,0,0,1,.22-.55h2.1a3.65,3.65,0,0,1,.15.38l1,4.27,1.22.4A10.57,10.57,0,0,1,23.2,8l1.15.6L28,6.3a.91.91,0,0,1,.46-.16l1.48,1.44a1.51,1.51,0,0,1-.2.5l-2.23,3.71L28,12.9a10.47,10.47,0,0,1,.71,1.72l.39,1.25,4.16.92a.8.8,0,0,1,.49.27ZM18,24.76A6.76,6.76,0,1,1,24.82,18,6.76,6.76,0,0,1,18,24.76ZM18,13.5a4.5,4.5,0,1,0,4.5,4.5A4.5,4.5,0,0,0,18,13.5Z"/></svg>