<svg id="图层_1" data-name="图层 1" xmlns="http://www.w3.org/2000/svg" viewBox="0 0 43 43"><defs><style>.cls-1{fill:#454545;}</style></defs><title>画板 1 副本 14</title><rect id="矩形_1188" data-name="矩形 1188" class="cls-1" x="9.13" y="9" width="19.81" height="1.78" rx="0.89" ry="0.89"/><rect id="矩形_1188_拷贝" data-name="矩形 1188 拷贝" class="cls-1" x="9.13" y="17.94" width="19.81" height="1.81" rx="0.91" ry="0.91"/><path id="矩形_1188_拷贝_2" data-name="矩形 1188 拷贝 2" class="cls-1" d="M10.13,26.84H21.39L20,28.19a1.6,1.6,0,0,1-1.1.43H12.8a1.6,1.6,0,0,1-1-.38Z"/><path class="cls-1" d="M6.68,25.77l8.77,7.51a.61.61,0,0,0,.8,0L40.94,11.83a.61.61,0,0,1,.85,0l.81.88a.61.61,0,0,1,0,.85L16.2,40.1a.61.61,0,0,1-.88,0L4.1,28.19a.61.61,0,0,1,0-.88l1.74-1.54A.61.61,0,0,1,6.68,25.77Z"/><path class="cls-1" d="M33,0H5A5,5,0,0,0,0,5V38a5,5,0,0,0,5,5H33a5,5,0,0,0,5-5V19.32l-2,2V38a3,3,0,0,1-3,3H16.45l-.73.64L15,41H5a3,3,0,0,1-3-3V5A3,3,0,0,1,5,2H33a3,3,0,0,1,3,3v9.83L38,13V5A5,5,0,0,0,33,0Z"/></svg>