<?xml version="1.0" encoding="utf-8"?>
<!-- Generator: Adobe Illustrator 20.1.0, SVG Export Plug-In . SVG Version: 6.00 Build 0)  -->
<svg version="1.1" id="图层_1" xmlns="http://www.w3.org/2000/svg" xmlns:xlink="http://www.w3.org/1999/xlink" x="0px" y="0px"
	 viewBox="0 0 36 36" style="enable-background:new 0 0 36 36;" xml:space="preserve">
<style type="text/css">
	.st0{fill:#919191;}
</style>
<title>画板 1 副本 13</title>
<path id="Grid_拷贝_2" class="st0" d="M33.9,36H22.2c-1.2,0-2.1-0.9-2.1-2.1V22.2c0-1.2,0.9-2.1,2.1-2.1h11.6
	c1.2,0,2.1,0.9,2.1,2.1v11.6C36,35.1,35.1,36,33.9,36z M33.9,22.2H22.2v11.6h11.6V22.2z M33.9,15.9H22.2c-1.2,0-2.1-0.9-2.1-2.1v0
	V2.1c0-1.2,0.9-2.1,2.1-2.1c0,0,0,0,0,0h11.6C35.1,0,36,0.9,36,2.1v11.6C36,14.9,35.1,15.9,33.9,15.9L33.9,15.9z M33.9,2.1H22.2
	v11.6h11.6V2.1z M13.8,36H2.1C0.9,36,0,35.1,0,33.9V22.2c0-1.2,0.9-2.1,2.1-2.1c0,0,0,0,0,0h11.6c1.2,0,2.1,0.9,2.1,2.1v11.6
	C15.9,35.1,14.9,36,13.8,36z M13.8,22.2H2.1v11.6h11.6V22.2z M13.8,15.9H2.1c-1.2,0-2.1-0.9-2.1-2.1c0,0,0,0,0,0V2.1
	C0,0.9,0.9,0,2.1,0h11.6c1.2,0,2.1,0.9,2.1,2.1v11.6C15.9,14.9,14.9,15.9,13.8,15.9L13.8,15.9z M13.8,2.1H2.1v11.6h11.6V2.1z"/>
</svg>
