<svg id="图层_1" data-name="图层 1" xmlns="http://www.w3.org/2000/svg" xmlns:xlink="http://www.w3.org/1999/xlink" viewBox="0 0 36 36"><defs><style>.cls-1,.cls-2,.cls-4{fill:#454545;}.cls-1{clip-rule:evenodd;}.cls-2{fill-rule:evenodd;}.cls-3{clip-path:url(#clip-path);}.cls-5{fill:#919191;}</style><clipPath id="clip-path"><path class="cls-1" d="M-219.73-88.65l-17-17a2.91,2.91,0,0,1,0-1l17-17a2.64,2.64,0,0,1,1,0l2,2a2.6,2.6,0,0,1,0,1l-14,14a.9.9,0,0,0,0,1l14,14a2.58,2.58,0,0,1,0,1l-2,2A2.67,2.67,0,0,1-219.73-88.65Z"/></clipPath></defs><title>画板 1 副本 20</title><path class="cls-2" d="M-219.73-88.65l-17-17a2.91,2.91,0,0,1,0-1l17-17a2.64,2.64,0,0,1,1,0l2,2a2.6,2.6,0,0,1,0,1l-14,14a.9.9,0,0,0,0,1l14,14a2.58,2.58,0,0,1,0,1l-2,2A2.67,2.67,0,0,1-219.73-88.65Z"/><g class="cls-3"><rect class="cls-4" x="-257.73" y="-190.65" width="750" height="1334"/></g><path id="icon_拷贝_3" data-name="icon 拷贝 3" class="cls-5" d="M3,7.12H1a1,1,0,0,1,0-2H3a1,1,0,0,1,0,2Zm32,0H11a1,1,0,0,1,0-2H35a1,1,0,0,1,0,2Zm-32,12H1a1,1,0,0,1,0-2H3a1,1,0,0,1,0,2Zm32,0H11a1,1,0,0,1,0-2H35a1,1,0,0,1,0,2Zm-32,12H1a1,1,0,0,1,0-2H3a1,1,0,1,1,0,2Zm32,0H11a1,1,0,0,1,0-2H35a1,1,0,0,1,0,2Z"/></svg>