<?xml version="1.0" encoding="utf-8"?>
<!-- Generator: Adobe Illustrator 20.1.0, SVG Export Plug-In . SVG Version: 6.00 Build 0)  -->
<svg version="1.1" id="图层_1" xmlns="http://www.w3.org/2000/svg" xmlns:xlink="http://www.w3.org/1999/xlink" x="0px" y="0px"
	 viewBox="0 0 36 36" style="enable-background:new 0 0 36 36;" xml:space="preserve">
<style type="text/css">
	.st0{fill:#919191;}
</style>
<title>画板 1 副本 20</title>
<path id="icon_拷贝_3" class="st0" d="M3,7.1H1c-0.6,0-1-0.4-1-1s0.4-1,1-1h2c0.6,0,1,0.4,1,1S3.6,7.1,3,7.1z M35,7.1H11
	c-0.6,0-1-0.4-1-1s0.4-1,1-1h24c0.6,0,1,0.4,1,1S35.6,7.1,35,7.1z M3,19.1H1c-0.6,0-1-0.4-1-1s0.4-1,1-1h2c0.6,0,1,0.4,1,1
	S3.6,19.1,3,19.1z M35,19.1H11c-0.6,0-1-0.4-1-1s0.4-1,1-1h24c0.6,0,1,0.4,1,1S35.6,19.1,35,19.1z M3,31.1H1c-0.6,0-1-0.4-1-1
	s0.4-1,1-1h2c0.6,0,1,0.4,1,1S3.6,31.1,3,31.1z M35,31.1H11c-0.6,0-1-0.4-1-1s0.4-1,1-1h24c0.6,0,1,0.4,1,1S35.6,31.1,35,31.1z"/>
</svg>
