<svg id="图层_1" data-name="图层 1" xmlns="http://www.w3.org/2000/svg" viewBox="0 0 44 44"><defs><style>.cls-1{fill:#454545;}</style></defs><title>画板 1 副本 18</title><path class="cls-1" d="M39.21,21H22.92V13.24h0A11.73,11.73,0,0,0,11.47,1.37,11.74,11.74,0,0,0,0,13.35H0c0,.52.43.78,1,.78a.85.85,0,0,0,1-.78h0A9.84,9.84,0,0,1,11.47,3.27,9.81,9.81,0,0,1,21,13.05V21H16.37a4.76,4.76,0,0,0-4.76,4.76V37.92a4.76,4.76,0,0,0,4.76,4.76H39.21A4.76,4.76,0,0,0,44,37.92V25.72A4.76,4.76,0,0,0,39.21,21Zm2.86,17a2.86,2.86,0,0,1-2.86,2.86H16.37a2.86,2.86,0,0,1-2.86-2.86V25.72a2.86,2.86,0,0,1,2.86-2.86H39.21a2.86,2.86,0,0,1,2.86,2.86Z"/></svg>