<?xml version="1.0" encoding="utf-8"?>
<!-- Generator: Adobe Illustrator 20.1.0, SVG Export Plug-In . SVG Version: 6.00 Build 0)  -->
<svg version="1.1" id="图层_1" xmlns="http://www.w3.org/2000/svg" xmlns:xlink="http://www.w3.org/1999/xlink" x="0px" y="0px"
	 viewBox="0 0 164 164" style="enable-background:new 0 0 164 164;" xml:space="preserve">
<style type="text/css">
	.st0{fill:#EB3C19;}
</style>
<title>画板 1 副本 29</title>
<path class="st0" d="M116.6,112.3c-6-9.4-15.7-24.5-16.9-26.8c-0.9-2-1.4-3.2-1.5-4.6c0-1.8,1.5-4.7,2.3-6.1l12.6-25.3
	c3.1-5.6,7.2-14.1,7.2-23.6V10.7c0-5.9-4.8-10.7-10.7-10.7H54.8c-5.9,0-10.7,4.8-10.7,10.7v15.2c0,9.3,3.8,17.5,7.2,23.5l13.2,25.4
	l0.3,0.5c0.8,1.5,2.1,3.7,2,5.5c-0.1,1.6-0.6,3.1-1.3,4.4c-0.6,1.1-10.5,16.8-17,27c-4.7,7-7.3,15.3-7.3,23.7v17
	c0,6,4.9,10.8,10.8,10.9h61c6,0,10.9-4.8,10.9-10.9v-17C123.9,127.6,121.4,119.3,116.6,112.3z M120.1,153c0,3.9-3.1,7-7,7H52
	c-3.9,0-7-3.1-7-7v-17c0-7.7,2.3-15.2,6.7-21.6c2.8-4.3,16.5-26,17.2-27.4c1.1-1.8,1.7-3.9,1.8-6c0.1-2.9-1.5-5.7-2.5-7.5L54.7,47.6
	c-3.1-5.7-6.7-13.3-6.7-21.7V10.7c0-3.8,3.1-6.9,6.9-6.9h54.8c3.8,0,6.8,3.1,6.8,6.8c0,0,0,0,0,0v15.2c0,8.6-3.8,16.5-6.8,21.8
	L97.2,73c-1.3,2.5-2.8,5.3-2.7,8c0.1,2,0.7,3.9,1.6,5.7l0,0l0.1,0.3c0.9,2,14.5,23.2,17.2,27.5c4.3,6.4,6.6,13.9,6.6,21.5V153z"/>
<path class="st0" d="M83.7,71.3l17-28.8c0.4-0.6,0.2-1.4-0.4-1.8c-0.2-0.1-0.5-0.2-0.7-0.2h-34c-0.7,0-1.3,0.6-1.3,1.3
	c0,0.2,0.1,0.5,0.2,0.7l17,28.8c0.4,0.6,1.2,0.8,1.8,0.5C83.4,71.6,83.5,71.5,83.7,71.3z"/>
<path class="st0" d="M106.6,122.6c-1.1-1.6-2.9-2.6-4.8-2.6h-39c-2,0-3.8,1-4.8,2.6l-6,9.3c-0.6,0.9-0.9,2-0.9,3.1v13.6
	c0,3.2,2.6,5.8,5.8,5.8h51.1c3.2,0,5.8-2.6,5.8-5.8V135c0-1.1-0.3-2.2-0.9-3.1L106.6,122.6z"/>
<rect x="81.1" y="85.9" class="st0" width="2.9" height="4.8"/>
<rect x="81.1" y="95.1" class="st0" width="2.9" height="4.8"/>
</svg>
